<svg class="devicon" xmlns="http://www.w3.org/2000/svg" viewBox="0 0 640 640"><path d="M58.468 62.433q.032 0 .532.5t1 .5q.5 0 2 2.5t2.5 5q1 2.5 1.5 7t2 16q1.5 11.5 1.5 16t-.5 16q-.5 11.5-2 17.5l-2.5 10q-1 4-1 8.5t-2 12.5q-2 8-2.5 13t-.5 9v14.5q0 2.5-.5 6t-1 6q-.5 2.5-.5 8t.5 8.5q.5 3 1.5 6t2 6.5q1 3.5 2 7.5t1.5 6.5q.5 2.5 1 4.5t1.5 5.5q1 3.5 1 4t.5 1.5q.5 1 1 3t1 3.5q.5 1.5.5 2v4q0 .5.5.5h1.532" stroke-linecap="round" stroke="#000" stroke-width="32" stroke-linejoin="round" stroke-miterlimit="10" fill="none"/><path d="M65.478 67.465q.032-.032 1.032-.532t2.5-1.5q1.5-1 5.5-2.5t8-2q4-.5 9.5-1t9-.5h13.5q3 0 6.5 1t6 2q2.5 1 6.5 3l8 4 7 3.5q3 1.5 6.5 3.5t6 4.5q2.5 2.5 6.5 7.5t8 11.5q4 6.5 6 13.5t3.5 15q1.5 8 1 15.5t-6.5 16.5q-6 9-9.5 13t-7.5 8q-4 4-7 6t-6 2.5q-3 .5-6 .5t-8.5.5-8.5.5h-17.5q-2.5 0-5 .5t-5.5.5h-29q-1 0-1.5-.5t-2-1.5l-1.532-1.032M321.532 71.401q-.032.032-.532 1.032t-1.5 4q-1 3-4.5 9.5t-7.5 14.5q-4 8-7 16t-7.5 16q-4.5 8-7 14.5l-5 13q-2.5 6.5-6.5 18.5t-6.5 16.5q-2.5 4.5-4.5 9t-3 7.5q-1 3-2 6.5t-2.5 8l-2.5 7.5-2 6q-1 3-2 5.5t-3 6q-2 3.5-2.5 6t-2 7q-1.5 4.5-2.5 6.5t-2 5l-2 6q-1 3-3 6t-3.5 5l-1.532 2.032M324.478 72.401l.532.532q.5.5 3 4.5t5.5 9.5l9 16.5q6 11 9 19t7.5 16q4.5 8 8 16t6.5 16q3 8 6 15t5 13q2 6 5 13.5t5.5 12q2.5 4.5 4.5 9t4 8.5l3.5 7q1.5 3 3.5 6.5t4 9q2 5.5 3 8.5t2 5.5q1 2.5 2 4t2 2q1 .5 2 2.5t2 3q1 1 1.5 2.5t1.5 2q1 .5 1 1.5v1.5q0 .5-.5.5t-1-.5q-.5-.5-1.5-.5h-1.032" stroke-linecap="round" stroke="#000" stroke-width="32" stroke-linejoin="round" stroke-miterlimit="10" fill="none"/><path d="M268.468 191.433h6.032q2 0 5.5.5t7.5.5h92.032M584.532 96.433q-.032 0-.032-1t-.5-1q-.5 0-1.5-1.5t-3-4q-2-2.5-4.5-4t-7-4q-4.5-2.5-6.5-3.5t-3.5-1.5q-1.5-.5-2-1.5t-2-2q-1.5-1-2.5-1.5t-1.5-1q-.5-.5-1-.5h-1.5q-1 0-1.5-.5t-1-.5h-6q-5.5 0-8 1t-4.5 1.5q-2 .5-3 1t-4 1.5q-3 1-5.5 2t-9 3.5q-6.5 2.5-9.5 5t-5 3.5q-2 1-3.5 1.5t-3 2l-2.5 2.5q-1 1-2.5 3.5t-2.5 4l-2 3q-1 1.5-1 3.5v5q0 3 1.5 8t2.5 8q1 3 4 6.5t6 6.5 6 6.5q3 3.5 6.5 6.5t9 8q5.5 5 9.5 8t7 5.5q3 2.5 6.5 4.5t6.5 3q3 1 5.5 3t5 3q2.5 1 5.5 2t6 3q3 2 6.5 3.5t6.5 4q3 2.5 8.5 6t7 4q1.5.5 3 2t2 4q.5 2.5-.5 5t-1.5 6q-.5 3.5-2 8t-2.5 8.5q-1 4-2.5 9t-3 8.5q-1.5 3.5-3.5 5.5t-3.5 4.5q-1.5 2.5-4 3.5l-5 2q-2.5 1-6 2t-5.5 1-5.5 1q-3.5 1-6.5 1.5t-7 .5H528q-3.5 0-8-.5t-7.5-1.5q-3-1-6-2.5l-7-3.5q-4-2-7-3t-5.5-2q-2.5-1-3.5-2.5t-2.5-2q-1.5-.5-2-1l-1.5-1.5-2.5-2.5q-1.5-1.5-2.5-2l-2-1q-1-.5-1.5-1.5l-.532-1.032M189.532 392q-.032 0-1.032-.5t-1.5-.5h-2q-1.5 0-3.5-1t-4-1.5q-2-.5-6.5-.5h-13.5q-3 0-6 1t-7.5 2q-4.5 1-11.5 4t-11.5 6q-4.5 3-8.5 5.5t-7 5.5l-6 6q-3 3-6 6.5t-8 8-8 8q-3 3.5-6 6.5t-6.5 6q-3.5 3-5.5 6.5t-3 6.5q-1 3-2.5 6t-2.5 6q-1 3-3 8.5t-3 8.5q-1 3-2 6.5t-2 7.5q-1 4-1.5 5.5t-1 3.5q-.5 2-.5 5v5.5q0 2.5 1 5.5l1.5 4.5q.5 1.5 2 3.5t2.5 4.5q1 2.5 2.5 5t4 5l4.5 4.5 4 4q2 2 5 4.5t4 3.5q1 1 3.5 1.5t4.5 2q2 1.5 3 2t2 1.5q1 1 4 2t4 2q1 1 2.5 1.5t5.5 1.5q4 1 6.5 2t6.5 2q4 1 6 1H143q1.5 0 6-.5t7.5-1q3-.5 6-1.5t5-1.5q2-.5 3.5-1.5t2.5-1.5l3-1.5q2-1 3-2t2-1.5q1-.5 1.5-1t.5-1v-1-1-1q0-.5.5-2.5l.532-2.032" stroke-linecap="round" stroke="#000" stroke-width="32" stroke-linejoin="round" stroke-miterlimit="10" fill="none"/><path d="M132.468 522q.032 0 6.032.5t9 .5h14q4 0 9-.5t7.5-.5h5q2.5 0 7.5-1t8-1q3 0 5.5-.5t4-.5q1.5 0 3.5-.5t3.5-.5h13q1.5 0 3.5-1t3.5-1h4q.5 0 0 0t-1 1.5q-.5 1.5-1 3.5t-1.5 6.5q-1 4.5-2.5 10.5t-2.5 11q-1 5-2 10.5t-1 8.5v11.5q0 .5.5 1.5t.5 2q0 1 .5 2.5t.5 2.5v2q0 1 .5 1.5l1 1q.5.5.5 1.5v3q0 1 1 2t1.5 1h.532M379.532 376.968Q379.5 377 379 378l-1.5 3q-1 2-7 15.5t-11 25q-5 11.5-10 21.5t-9.5 20q-4.5 10-8.5 19t-5.5 13q-1.5 4-7 16.5t-6.5 16.5q-1 4-2 6.5t-2 3.5-2 3.5q-1 2.5-2.5 7t-2.5 8q-1 3.5-2 5.5t-1.5 2.5l-1 1-1.5 1.5q-1 1-1.5 2l-1 2q-.5 1-.5 1.5t-.5 1-.5 1-.5 1-.5 1v1.532M386.468 375.968q.032.032.032.532t.5 2q.5 1.5 2 4.5l4 8q2.5 5 4.5 10.5t3 8.5q1 3 5.5 15.5t9 21.5l8.5 17q4 8 7 16.5t4 13q1 4.5 2 8t2 6.5q1 3 2.5 6t2 6.5q.5 3.5 2.5 10t3 11q1 4.5 2 8t2 6q1 2.5 2 4t1 2q0 .5 1 1l1.032.532" stroke-linecap="round" stroke="#000" stroke-width="32" stroke-linejoin="round" stroke-miterlimit="10" fill="none"/><path d="M338.468 483H372.5q5 0 9.5.5t7 .5h6.5q4 0 7 .5t6 .5h4q1 0 1.5.5t1.5.5h8q2 0 3 .5t2 .5h1.032M471.468 356.968q.032.032 3.032 1.532t7 4.5l8 6q4 3 7 5.5t6.5 5q3.5 2.5 8 5.5t10.5 6.5q6 3.5 11 7t6 4q1 .5 1.5 1l1 1q.5.5 1.5 1t2.5 2l1.532 1.532M614.532 349.968Q614.5 350 614 350t-1 1q-.5 1-2.5 3.5t-4 5.5q-2 3-4 6.5t-4 6.5q-2 3-4 5.5t-4 6q-2 3.5-3 4.5t-2.5 2q-1.5 1-2.5 2.5t-2 2.5l-2 2-2 2-1.5 1.5-1.5 1.5-1.5 1.5q-.5.5-1.5 2t-2 2q-1 .5-1.5 1.5t-1 1.5l-1.5 1.5-2 2q-1 1-2 1t-1.5.5l-1 1-1.5 1.5q-1 1-2 1.5t-1 1q0 .5-2 1.5l-2.032 1.032M548.5 413.968V420q0 2-1 6t-1 8q0 4-.5 8t-1 9q-.5 5-.5 8t.5 6l1 6q.5 3 .5 7.5v21q0 1.5-.5 5.5t-.5 6.5q0 2.5.5 4.5t.5 5v6q0 3 .5 6t.5 7q0 4 .5 6t.5 3.5v7q0 .5-.5 2.5t-.5 3v6q0 2-.5 2.5t-1 1.5q-.5 1-.5.5t.5-.5h.532" stroke-linecap="round" stroke="#000" stroke-width="32" stroke-linejoin="round" stroke-miterlimit="10" fill="none"/></svg>
